<?xml version="1.0" standalone="no"?><!DOCTYPE svg PUBLIC "-//W3C//DTD SVG 1.1//EN" "http://www.w3.org/Graphics/SVG/1.1/DTD/svg11.dtd"><svg t="1643520155005" class="icon" viewBox="0 0 1024 1024" version="1.1" xmlns="http://www.w3.org/2000/svg" p-id="10601" xmlns:xlink="http://www.w3.org/1999/xlink" width="200" height="200"><defs><style type="text/css"></style></defs><path d="M937.749333 261.482667L535.466667 5.482667c-14.634667-7.317333-29.248-7.317333-43.882667 0l-402.282667 256C81.984 268.8 74.666667 276.117333 74.666667 290.773333V729.6c0 14.634667 7.317333 21.952 14.634666 29.248l402.282667 256c14.634667 7.317333 29.248 7.317333 36.565333 0l402.282667-256c7.317333-7.296 14.634667-21.930667 14.634667-29.248V290.752c7.317333-14.634667 0-21.952-7.317334-29.269333z m-153.6 175.552l-234.048 131.648v270.634666c0 21.930667-14.634667 36.565333-36.586666 36.565334-21.930667 0-36.565333-14.634667-36.565334-36.565334V568.682667L242.901333 437.034667c-14.634667-7.317333-29.269333-29.269333-21.952-51.2 7.317333-21.952 29.269333-29.269333 51.2-21.952l241.365334 146.282666 241.386666-146.282666c21.930667-7.317333 36.565333 0 51.2 21.952 14.613333 21.930667 0 43.882667-21.952 51.2z" fill="#1296db" p-id="10602"></path></svg>