<?xml version="1.0" standalone="no"?><!DOCTYPE svg PUBLIC "-//W3C//DTD SVG 1.1//EN" "http://www.w3.org/Graphics/SVG/1.1/DTD/svg11.dtd"><svg t="1652925054376" class="icon" viewBox="0 0 1024 1024" version="1.1" xmlns="http://www.w3.org/2000/svg" p-id="2754" xmlns:xlink="http://www.w3.org/1999/xlink" width="200" height="200"><defs><style type="text/css"></style></defs><path d="M949.267081 128.795031v540.621118h-54.062112v-540.621118c0-42.400596-20.146087-71.552795-55.652174-71.552795H341.863354V3.106981H836.372671c67.307329 0 112.89441 48.306087 112.89441 125.68805z" p-id="2755"></path><path d="M766.409938 114.484472H157.416149C124.555925 114.484472 82.68323 148.934758 82.68323 187.627329v739.378882c0 33.919205 33.391304 71.552795 73.142857 71.552795h608.993789c34.981366 0 74.732919-34.450286 74.732919-71.552795V190.807453c0-39.751553-32.332323-76.322981-73.142857-76.322981z m20.161987 760.650733c0 62.20641-6.64646 72.013913-63.093664 72.013913h-524.720497c-56.447205 0-63.093665-6.217143-63.093665-72.013913V239.272547c0-61.18559 8.236522-71.250683 67.332771-71.250684h521.540372c56.183255 0 62.034683 7.68 62.034683 73.98559v633.127752z" p-id="2756"></path><path d="M265.540373 319.602484H655.10559V410.236025H265.540373zM265.540373 522.650236H655.10559v90.188323H265.540373zM265.540373 721.579727H655.10559v90.188323H265.540373z" p-id="2757"></path></svg>