<svg width="1024" height="1024" xmlns="http://www.w3.org/2000/svg" p-id="6717" version="1.1" class="icon" t="1547360688278">

 <g>
  <title>Layer 1</title>
  <path id="svg_1" p-id="6718" fill="#000000" d="m890,120l-756,0a70,70 0 0 0 -70,70l0,500a70,70 0 0 0 70,70l756,0a70,70 0 0 0 70,-70l0,-500a70,70 0 0 0 -70,-70zm-10,520a40,40 0 0 1 -40,40l-128,0l0,-232a40,40 0 0 0 -80,0l0,232l-80,0l0,-312a40,40 0 0 0 -80,0l0,312l-80,0l0,-168a40,40 0 0 0 -80,0l0,168l-128,0a40,40 0 0 1 -40,-40l0,-400a40,40 0 0 1 40,-40l656,0a40,40 0 0 1 40,40l0,400zm-184,184l-368,0a40,40 0 0 0 0,80l368,0a40,40 0 0 0 0,-80z"/>
 </g>
</svg>