<?xml version="1.0" standalone="no"?><!DOCTYPE svg PUBLIC "-//W3C//DTD SVG 1.1//EN" "http://www.w3.org/Graphics/SVG/1.1/DTD/svg11.dtd"><svg t="1652849296902" class="icon" viewBox="0 0 1024 1024" version="1.1" xmlns="http://www.w3.org/2000/svg" p-id="2102" xmlns:xlink="http://www.w3.org/1999/xlink" width="200" height="200"><defs><style type="text/css"></style></defs><path d="M866.461538 39.384615H275.692308c-43.323077 0-78.769231 35.446154-78.769231 78.769231v59.076923H137.846154c-33.476923 0-59.076923 25.6-59.076923 59.076923s25.6 59.076923 59.076923 59.076923h59.076923v157.538462H137.846154c-33.476923 0-59.076923 25.6-59.076923 59.076923s25.6 59.076923 59.076923 59.076923h59.076923v157.538462H137.846154c-33.476923 0-59.076923 25.6-59.076923 59.076923s25.6 59.076923 59.076923 59.076923h59.076923v59.076923c0 43.323077 35.446154 78.769231 78.769231 78.769231h590.76923c43.323077 0 78.769231-35.446154 78.769231-78.769231V118.153846c0-43.323077-35.446154-78.769231-78.769231-78.769231z m-137.846153 669.538462c0 11.815385-7.876923 19.692308-19.692308 19.692308H433.230769c-11.815385 0-19.692308-7.876923-19.692307-19.692308v-39.384615c0-11.815385 7.876923-19.692308 19.692307-19.692308h275.692308c11.815385 0 19.692308 7.876923 19.692308 19.692308v39.384615z m39.384615-157.538462c0 11.815385-7.876923 19.692308-19.692308 19.692308H393.846154c-11.815385 0-19.692308-7.876923-19.692308-19.692308v-39.384615c0-11.815385 7.876923-19.692308 19.692308-19.692308h354.461538c11.815385 0 19.692308 7.876923 19.692308 19.692308v39.384615z m39.384615-196.923077c0 11.815385-7.876923 19.692308-19.692307 19.692308H354.461538c-11.815385 0-19.692308-7.876923-19.692307-19.692308v-118.153846c0-11.815385 7.876923-19.692308 19.692307-19.692307h433.23077c11.815385 0 19.692308 7.876923 19.692307 19.692307v118.153846z" p-id="2103"></path></svg>