<?xml version="1.0" standalone="no"?><!DOCTYPE svg PUBLIC "-//W3C//DTD SVG 1.1//EN" "http://www.w3.org/Graphics/SVG/1.1/DTD/svg11.dtd"><svg t="1662219020138" class="icon" viewBox="0 0 1025 1024" version="1.1" xmlns="http://www.w3.org/2000/svg" p-id="13383" xmlns:xlink="http://www.w3.org/1999/xlink" width="200.1953125" height="200"><path d="M456.997502 58.839882a46.513741 46.513741 0 0 1 23.25687 6.279355l351.41131 202.799909a46.513741 46.513741 0 0 1 23.256871 40.932092v405.599818a46.513741 46.513741 0 0 1-23.256871 40.932092l-351.41131 202.799909a47.909153 47.909153 0 0 1-46.513741 0L81.864184 755.383148a46.513741 46.513741 0 0 1-23.256871-40.932092V308.851238a46.513741 46.513741 0 0 1 23.256871-40.932092l351.876447-202.799909a46.513741 46.513741 0 0 1 23.256871-6.279355m0-58.839882a106.749035 106.749035 0 0 0-52.793096 13.954122L52.793096 217.451737A105.353623 105.353623 0 0 0 0 308.851238v405.599818a105.353623 105.353623 0 0 0 52.793096 91.3995l351.41131 202.79991a106.749035 106.749035 0 0 0 105.586191 0l351.411311-202.79991a105.353623 105.353623 0 0 0 52.793095-91.3995V308.851238a105.353623 105.353623 0 0 0-52.793095-91.399501L509.790597 14.651828a106.749035 106.749035 0 0 0-52.793095-14.651828z m329.084715 325.596184a29.071088 29.071088 0 0 0-39.53668-11.163297l-289.548035 163.728367-285.12923-169.077448a28.838519 28.838519 0 0 0-40.466955 10.000455 29.303657 29.303657 0 0 0 10.233023 40.001817l285.361799 169.077447-3.023393 332.340677a29.303657 29.303657 0 0 0 28.838519 29.536225 29.071088 29.071088 0 0 0 29.303657-29.536225l3.721099-331.642971 289.315467-162.798092a29.071088 29.071088 0 0 0 10.930729-40.466955z" p-id="13384" fill="#1a79d1"></path></svg>