<?xml version="1.0" standalone="no"?><!DOCTYPE svg PUBLIC "-//W3C//DTD SVG 1.1//EN" "http://www.w3.org/Graphics/SVG/1.1/DTD/svg11.dtd"><svg t="1635768479850" class="icon" viewBox="0 0 1024 1024" version="1.1" xmlns="http://www.w3.org/2000/svg" p-id="4012" xmlns:xlink="http://www.w3.org/1999/xlink" width="200" height="200"><defs><style type="text/css"></style></defs><path d="M779.95324 65.303308 243.954663 65.303308c-98.579179 0-178.665169 79.975473-178.665169 178.686658l0 536.000624c0 98.711186 80.08599 178.709171 178.665169 178.709171l535.998577 0c98.755188 0 178.75522-79.997985 178.75522-178.709171L958.70846 243.989967C958.70846 145.278781 878.708428 65.303308 779.95324 65.303308zM869.374852 735.345788c0 74.001411-60.021002 133.935432-133.998877 133.935432L288.623002 869.281219c-73.979922 0-133.912919-59.932997-133.912919-133.935432L154.710083 288.658306c0-74.001411 59.932997-133.956921 133.912919-133.956921l446.752973 0c73.977875 0 133.998877 59.95551 133.998877 133.956921L869.374852 735.345788zM400.725172 690.308035 266.637268 556.548612l67.086931-66.935482L467.725122 623.48307 400.725172 690.308035zM467.725122 355.87622 266.637268 556.548612l-66.912969-66.935482 200.99985-200.563922L467.725122 355.87622zM690.272731 489.614154l67.086931 66.935482L623.271758 690.308035l-66.912969-66.824965L690.272731 489.614154zM623.271758 289.050232 824.359612 489.614154l-67.000973 66.935482L556.358789 355.87622 623.271758 289.050232z" p-id="4013" fill="#009688"></path></svg>